<svg xmlns="http://www.w3.org/2000/svg" viewBox="0 0 305.17 305.18"><defs><style>.cls-1{fill:#fefefe;}</style></defs><g id="Layer_2" data-name="Layer 2"><g id="Layer_1-2" data-name="Layer 1"><path d="M0,269.09V35.72A36.64,36.64,0,0,1,10,13.5C16.82,6,24.94.72,35.52.3a1.22,1.22,0,0,0,.8-.3H268.51a35.32,35.32,0,0,1,22.06,9.12c9.13,7.9,14.55,17.66,14.55,30q0,113.24.05,226.47c0,18.75-14.9,34.65-31,38.69a37.47,37.47,0,0,1-9.15.79c-75.1,0-150.2-.09-225.3.1-18.15,0-33.69-13.34-38.55-28.81C.42,274,.63,271.47,0,269.09Z"/><path class="cls-1" d="M169.62,196a82.16,82.16,0,0,0,17.29-3.76c14.49-5.1,22.53-15.56,25-30.46,1.53-9.28,1.86-18.55-2.28-27.41a31.32,31.32,0,0,0-5.08-8,3.34,3.34,0,0,1-.83-3.68c2.13-7.09,1.38-14.09-.83-21-.53-1.65-1.52-2-3.09-2a29.6,29.6,0,0,0-15.61,5.16c-5.44,3.75-10.66,4.28-17.07,2.88-11.55-2.54-23.29-1.82-34.81.88a8.43,8.43,0,0,1-7.1-1.2c-6-3.75-12.21-6.91-19.41-7.7-2.47-.27-3.79.37-4.51,2.92-2,6.83-2.58,13.63-.36,20.47a2.56,2.56,0,0,1-.63,2.92c-13.79,14.64-9.11,43.13.08,54.32,6.65,8.1,15.51,12,25.39,14.2,2.8.62,5.66,1,8.84,1.53-2.83,3.51-5.14,7.23-5.6,11.78-.1,1-1.1,1-1.8,1.33-10.21,4.2-19.5,1.37-25.63-7.9-3.16-4.79-7-8.59-12.83-9.84-2.28-.49-5.19-1-6.17,1.19-.85,1.93,1.91,3.17,3.5,4.19a22.3,22.3,0,0,1,9.31,11.28c4.88,13.67,17,17.59,30.39,15.41,2.45-.4,3,0,2.91,2.42-.17,3.86,0,7.73,0,11.6,0,5.16-2.75,7.11-7.73,5.42a92.07,92.07,0,0,1-37.52-23.78c-18.53-19.4-27.94-42.68-26-69.42,2.82-38.95,23-66.61,59-81.43,44.1-18.18,94.6-1,118.14,39,28.58,48.53,8.72,109.74-43,132.53a85.59,85.59,0,0,1-8.58,3.28c-4.47,1.43-7.21-.62-7.21-5.28q0-11.61.11-23.21C175.89,207.85,174.78,201.45,169.62,196Z"/></g></g></svg>