<svg xmlns="http://www.w3.org/2000/svg" viewBox="0 0 305.17 305.25"><defs><style>.cls-1{fill:#0076b6;}.cls-2{fill:#fefefe;}</style></defs><g id="Layer_2" data-name="Layer 2"><g id="Layer_1-2" data-name="Layer 1"><path class="cls-1" d="M282.55,305.25H22.33c-2.3-1-4.95-.55-7.18-1.74C6.71,299,.86,292.67.25,282.54.06,279.27,0,276,0,272.73Q0,150.39,0,28c0-4.33,0-8.77,2-12.8C7.17,4.94,15.45-.16,27.09,0,39.39.18,51.69,0,64,0q106.84,0,213.71,0c4.42,0,9-.06,13.05,2.18,7.57,4.17,13.16,9.84,14,19a3.24,3.24,0,0,0,.38,1.72V283.21c-1,2.37-.56,5.12-1.84,7.42-4.12,7.4-9.49,13.13-18.51,14.12A4.11,4.11,0,0,0,282.55,305.25Z"/><path class="cls-2" d="M167.52,131.09c4-4.6,8-8.9,12.87-12.22a51.31,51.31,0,0,1,22.73-8.1c11.85-1.5,23.59-1.18,34.95,2.87,14.11,5,23.08,15.24,28.43,28.93,5.15,13.16,6.38,27,6.5,40.9.22,26.49.12,53,.13,79.48,0,5.84-2.88,8.68-8.81,8.7q-16.83.06-33.64,0c-6.07,0-8.9-2.89-8.9-8.93,0-24.91.05-49.82,0-74.72a54.28,54.28,0,0,0-2.82-18.43c-3.59-9.93-10.76-15.53-20.27-16.22-11.56-.84-20.34,3.31-25.74,13.77a49.47,49.47,0,0,0-5.43,23.2q.09,35.88,0,71.75c0,6.8-2.75,9.57-9.52,9.58q-15.76,0-31.55,0c-6.38,0-9.23-2.87-9.23-9.28q0-70.4,0-140.81c0-6.35,2.92-9.23,9.27-9.24q15.78,0,31.56,0c6.7,0,9.46,2.82,9.47,9.62C167.53,125,167.52,128,167.52,131.09Z"/><path class="cls-2" d="M94.61,192.18v69.05c0,7.73-2.67,10.43-10.32,10.43q-15,0-30.05,0c-6.84,0-9.84-3-9.84-9.76q0-69.93,0-139.88c0-6.59,3.07-9.68,9.61-9.69q15.48,0,30.95,0c6.62,0,9.63,3,9.64,9.61Q94.63,157.06,94.61,192.18Z"/><path class="cls-2" d="M69.59,98.81A32.43,32.43,0,1,1,102,66.49,32.32,32.32,0,0,1,69.59,98.81Z"/></g></g></svg>